<svg xmlns="http://www.w3.org/2000/svg" width="1615" height="704" viewBox="-20 -20 1615 704">
<rect x="-20" y="-20" width="100%" height="100%" fill="white"/>
<rect x="-13.5" y="523.8" width="1596.6" height="189.0" fill="#d1fae5" opacity="0.35" stroke="#111" stroke-width="0.5"/>
<rect x="-13.5" y="33.8" width="1596.6" height="454.1" fill="#e9d5ff" opacity="0.35" stroke="#111" stroke-width="0.5"/>
<rect x="27.0" y="377.6" width="54.0" height="22.5" fill="#9acd32" opacity="0.7" stroke="#111" stroke-width="0.5"/>
<rect x="52.9" y="365.0" width="2.2" height="47.7" fill="#d84a3a" opacity="0.8" stroke="#111" stroke-width="0.5"/>
<text x="54.0" y="367.2" font-size="6" text-anchor="middle">Minv1_clk_MP</text>
<rect x="94.5" y="377.6" width="54.0" height="22.5" fill="#9acd32" opacity="0.7" stroke="#111" stroke-width="0.5"/>
<rect x="120.4" y="365.0" width="2.2" height="47.7" fill="#d84a3a" opacity="0.8" stroke="#111" stroke-width="0.5"/>
<text x="121.5" y="367.2" font-size="6" text-anchor="middle">Minv2_D_MP</text>
<rect x="162.0" y="377.6" width="54.0" height="22.5" fill="#9acd32" opacity="0.7" stroke="#111" stroke-width="0.5"/>
<rect x="187.9" y="365.0" width="2.3" height="47.7" fill="#d84a3a" opacity="0.8" stroke="#111" stroke-width="0.5"/>
<text x="189.0" y="367.2" font-size="6" text-anchor="middle">Minv3_MP</text>
<rect x="229.5" y="377.6" width="54.0" height="22.5" fill="#9acd32" opacity="0.7" stroke="#111" stroke-width="0.5"/>
<rect x="255.4" y="365.0" width="2.3" height="47.7" fill="#d84a3a" opacity="0.8" stroke="#111" stroke-width="0.5"/>
<text x="256.5" y="367.2" font-size="6" text-anchor="middle">Minv4_MP</text>
<rect x="297.0" y="377.6" width="54.0" height="22.5" fill="#9acd32" opacity="0.7" stroke="#111" stroke-width="0.5"/>
<rect x="322.9" y="365.0" width="2.3" height="47.7" fill="#d84a3a" opacity="0.8" stroke="#111" stroke-width="0.5"/>
<text x="324.0" y="367.2" font-size="6" text-anchor="middle">Minv5_MP</text>
<rect x="364.5" y="377.6" width="54.0" height="22.5" fill="#9acd32" opacity="0.7" stroke="#111" stroke-width="0.5"/>
<rect x="390.4" y="365.0" width="2.3" height="47.7" fill="#d84a3a" opacity="0.8" stroke="#111" stroke-width="0.5"/>
<text x="391.5" y="367.2" font-size="6" text-anchor="middle">Minv6_MP</text>
<rect x="432.0" y="377.6" width="54.0" height="22.5" fill="#9acd32" opacity="0.7" stroke="#111" stroke-width="0.5"/>
<rect x="457.9" y="365.0" width="2.3" height="47.7" fill="#d84a3a" opacity="0.8" stroke="#111" stroke-width="0.5"/>
<text x="459.0" y="367.2" font-size="6" text-anchor="middle">Minv7_MP</text>
<rect x="499.5" y="377.6" width="54.0" height="22.5" fill="#9acd32" opacity="0.7" stroke="#111" stroke-width="0.5"/>
<rect x="525.4" y="365.0" width="2.3" height="47.7" fill="#d84a3a" opacity="0.8" stroke="#111" stroke-width="0.5"/>
<text x="526.5" y="367.2" font-size="6" text-anchor="middle">Mtg1_MP</text>
<rect x="567.0" y="377.6" width="54.0" height="22.5" fill="#9acd32" opacity="0.7" stroke="#111" stroke-width="0.5"/>
<rect x="592.9" y="365.0" width="2.3" height="47.7" fill="#d84a3a" opacity="0.8" stroke="#111" stroke-width="0.5"/>
<text x="594.0" y="367.2" font-size="6" text-anchor="middle">Mtg2_MP</text>
<rect x="634.5" y="377.6" width="54.0" height="22.5" fill="#9acd32" opacity="0.7" stroke="#111" stroke-width="0.5"/>
<rect x="660.4" y="365.0" width="2.3" height="47.7" fill="#d84a3a" opacity="0.8" stroke="#111" stroke-width="0.5"/>
<text x="661.5" y="367.2" font-size="6" text-anchor="middle">Mtg3_MP</text>
<rect x="702.0" y="377.6" width="54.0" height="22.5" fill="#9acd32" opacity="0.7" stroke="#111" stroke-width="0.5"/>
<rect x="727.9" y="365.0" width="2.2" height="47.7" fill="#d84a3a" opacity="0.8" stroke="#111" stroke-width="0.5"/>
<text x="729.0" y="367.2" font-size="6" text-anchor="middle">Mtg4_MP</text>
<rect x="792.0" y="608.2" width="54.0" height="11.2" fill="#9acd32" opacity="0.7" stroke="#111" stroke-width="0.5"/>
<rect x="817.9" y="595.6" width="2.2" height="36.5" fill="#d84a3a" opacity="0.8" stroke="#111" stroke-width="0.5"/>
<text x="819.0" y="592.2" font-size="6" text-anchor="middle">Minv1_clk_MN</text>
<rect x="859.5" y="608.2" width="54.0" height="11.2" fill="#9acd32" opacity="0.7" stroke="#111" stroke-width="0.5"/>
<rect x="885.4" y="595.6" width="2.2" height="36.5" fill="#d84a3a" opacity="0.8" stroke="#111" stroke-width="0.5"/>
<text x="886.5" y="592.2" font-size="6" text-anchor="middle">Minv2_D_MN</text>
<rect x="927.0" y="608.2" width="54.0" height="11.2" fill="#9acd32" opacity="0.7" stroke="#111" stroke-width="0.5"/>
<rect x="952.9" y="595.6" width="2.2" height="36.5" fill="#d84a3a" opacity="0.8" stroke="#111" stroke-width="0.5"/>
<text x="954.0" y="592.2" font-size="6" text-anchor="middle">Minv3_MN</text>
<rect x="994.5" y="608.2" width="54.0" height="11.2" fill="#9acd32" opacity="0.7" stroke="#111" stroke-width="0.5"/>
<rect x="1020.4" y="595.6" width="2.2" height="36.5" fill="#d84a3a" opacity="0.8" stroke="#111" stroke-width="0.5"/>
<text x="1021.5" y="592.2" font-size="6" text-anchor="middle">Minv4_MN</text>
<rect x="1062.0" y="608.2" width="54.0" height="11.2" fill="#9acd32" opacity="0.7" stroke="#111" stroke-width="0.5"/>
<rect x="1087.9" y="595.6" width="2.2" height="36.5" fill="#d84a3a" opacity="0.8" stroke="#111" stroke-width="0.5"/>
<text x="1089.0" y="592.2" font-size="6" text-anchor="middle">Minv5_MN</text>
<rect x="1129.5" y="608.2" width="54.0" height="11.2" fill="#9acd32" opacity="0.7" stroke="#111" stroke-width="0.5"/>
<rect x="1155.4" y="595.6" width="2.2" height="36.5" fill="#d84a3a" opacity="0.8" stroke="#111" stroke-width="0.5"/>
<text x="1156.5" y="592.2" font-size="6" text-anchor="middle">Minv6_MN</text>
<rect x="1197.0" y="608.2" width="54.0" height="11.2" fill="#9acd32" opacity="0.7" stroke="#111" stroke-width="0.5"/>
<rect x="1222.9" y="595.6" width="2.2" height="36.5" fill="#d84a3a" opacity="0.8" stroke="#111" stroke-width="0.5"/>
<text x="1224.0" y="592.2" font-size="6" text-anchor="middle">Minv7_MN</text>
<rect x="1264.5" y="608.2" width="54.0" height="11.2" fill="#9acd32" opacity="0.7" stroke="#111" stroke-width="0.5"/>
<rect x="1290.4" y="595.6" width="2.2" height="36.5" fill="#d84a3a" opacity="0.8" stroke="#111" stroke-width="0.5"/>
<text x="1291.5" y="592.2" font-size="6" text-anchor="middle">Mtg1_MN</text>
<rect x="1332.0" y="608.2" width="54.0" height="11.2" fill="#9acd32" opacity="0.7" stroke="#111" stroke-width="0.5"/>
<rect x="1357.9" y="595.6" width="2.2" height="36.5" fill="#d84a3a" opacity="0.8" stroke="#111" stroke-width="0.5"/>
<text x="1359.0" y="592.2" font-size="6" text-anchor="middle">Mtg2_MN</text>
<rect x="1399.5" y="608.2" width="54.0" height="11.2" fill="#9acd32" opacity="0.7" stroke="#111" stroke-width="0.5"/>
<rect x="1425.4" y="595.6" width="2.2" height="36.5" fill="#d84a3a" opacity="0.8" stroke="#111" stroke-width="0.5"/>
<text x="1426.5" y="592.2" font-size="6" text-anchor="middle">Mtg3_MN</text>
<rect x="1467.0" y="608.2" width="54.0" height="11.2" fill="#9acd32" opacity="0.7" stroke="#111" stroke-width="0.5"/>
<rect x="1492.9" y="595.6" width="2.2" height="36.5" fill="#d84a3a" opacity="0.8" stroke="#111" stroke-width="0.5"/>
<text x="1494.0" y="592.2" font-size="6" text-anchor="middle">Mtg4_MN</text>
<rect x="-6.8" y="313.7" width="457.6" height="6.3" fill="#a855f7" opacity="0.45" stroke="#111" stroke-width="0.5"/>
<rect x="31.5" y="316.8" width="6.3" height="72.0" fill="#f59e0b" opacity="0.45" stroke="#111" stroke-width="0.5"/>
<rect x="99.0" y="316.8" width="6.3" height="72.0" fill="#f59e0b" opacity="0.45" stroke="#111" stroke-width="0.5"/>
<rect x="166.5" y="316.8" width="6.3" height="72.0" fill="#f59e0b" opacity="0.45" stroke="#111" stroke-width="0.5"/>
<rect x="234.0" y="316.8" width="6.3" height="72.0" fill="#f59e0b" opacity="0.45" stroke="#111" stroke-width="0.5"/>
<rect x="301.5" y="316.8" width="6.3" height="72.0" fill="#f59e0b" opacity="0.45" stroke="#111" stroke-width="0.5"/>
<rect x="369.0" y="316.8" width="6.3" height="72.0" fill="#f59e0b" opacity="0.45" stroke="#111" stroke-width="0.5"/>
<rect x="436.5" y="316.8" width="6.3" height="72.0" fill="#f59e0b" opacity="0.45" stroke="#111" stroke-width="0.5"/>
<rect x="1.3" y="316.8" width="6.3" height="72.0" fill="#f59e0b" opacity="0.45" stroke="#111" stroke-width="0.5"/>
<rect x="1.3" y="316.8" width="6.3" height="72.0" fill="#f59e0b" opacity="0.45" stroke="#111" stroke-width="0.5"/>
<rect x="1.3" y="316.8" width="6.3" height="72.0" fill="#f59e0b" opacity="0.45" stroke="#111" stroke-width="0.5"/>
<rect x="1.3" y="316.8" width="6.3" height="72.0" fill="#f59e0b" opacity="0.45" stroke="#111" stroke-width="0.5"/>
<rect x="1.3" y="316.8" width="6.3" height="72.0" fill="#f59e0b" opacity="0.45" stroke="#111" stroke-width="0.5"/>
<rect x="1.3" y="316.8" width="6.3" height="72.0" fill="#f59e0b" opacity="0.45" stroke="#111" stroke-width="0.5"/>
<rect x="1.3" y="316.8" width="6.3" height="72.0" fill="#f59e0b" opacity="0.45" stroke="#111" stroke-width="0.5"/>
<rect x="1.3" y="316.8" width="6.3" height="72.0" fill="#f59e0b" opacity="0.45" stroke="#111" stroke-width="0.5"/>
<rect x="1.3" y="316.8" width="6.3" height="72.0" fill="#f59e0b" opacity="0.45" stroke="#111" stroke-width="0.5"/>
<rect x="1.3" y="316.8" width="6.3" height="72.0" fill="#f59e0b" opacity="0.45" stroke="#111" stroke-width="0.5"/>
<rect x="1.3" y="316.8" width="6.3" height="72.0" fill="#f59e0b" opacity="0.45" stroke="#111" stroke-width="0.5"/>
<rect x="1.3" y="316.8" width="6.3" height="72.0" fill="#f59e0b" opacity="0.45" stroke="#111" stroke-width="0.5"/>
<rect x="758.3" y="294.8" width="457.6" height="6.3" fill="#a855f7" opacity="0.45" stroke="#111" stroke-width="0.5"/>
<rect x="796.5" y="297.9" width="6.3" height="315.9" fill="#f59e0b" opacity="0.45" stroke="#111" stroke-width="0.5"/>
<rect x="864.0" y="297.9" width="6.3" height="315.9" fill="#f59e0b" opacity="0.45" stroke="#111" stroke-width="0.5"/>
<rect x="931.5" y="297.9" width="6.3" height="315.9" fill="#f59e0b" opacity="0.45" stroke="#111" stroke-width="0.5"/>
<rect x="999.0" y="297.9" width="6.3" height="315.9" fill="#f59e0b" opacity="0.45" stroke="#111" stroke-width="0.5"/>
<rect x="1066.5" y="297.9" width="6.3" height="315.9" fill="#f59e0b" opacity="0.45" stroke="#111" stroke-width="0.5"/>
<rect x="1134.0" y="297.9" width="6.3" height="315.9" fill="#f59e0b" opacity="0.45" stroke="#111" stroke-width="0.5"/>
<rect x="1201.5" y="297.9" width="6.3" height="315.9" fill="#f59e0b" opacity="0.45" stroke="#111" stroke-width="0.5"/>
<rect x="766.4" y="297.9" width="6.3" height="315.9" fill="#f59e0b" opacity="0.45" stroke="#111" stroke-width="0.5"/>
<rect x="766.4" y="297.9" width="6.3" height="315.9" fill="#f59e0b" opacity="0.45" stroke="#111" stroke-width="0.5"/>
<rect x="766.4" y="297.9" width="6.3" height="315.9" fill="#f59e0b" opacity="0.45" stroke="#111" stroke-width="0.5"/>
<rect x="766.4" y="297.9" width="6.3" height="315.9" fill="#f59e0b" opacity="0.45" stroke="#111" stroke-width="0.5"/>
<rect x="766.4" y="297.9" width="6.3" height="315.9" fill="#f59e0b" opacity="0.45" stroke="#111" stroke-width="0.5"/>
<rect x="766.4" y="297.9" width="6.3" height="315.9" fill="#f59e0b" opacity="0.45" stroke="#111" stroke-width="0.5"/>
<rect x="766.4" y="297.9" width="6.3" height="315.9" fill="#f59e0b" opacity="0.45" stroke="#111" stroke-width="0.5"/>
<rect x="766.4" y="297.9" width="6.3" height="315.9" fill="#f59e0b" opacity="0.45" stroke="#111" stroke-width="0.5"/>
<rect x="766.4" y="297.9" width="6.3" height="315.9" fill="#f59e0b" opacity="0.45" stroke="#111" stroke-width="0.5"/>
<rect x="766.4" y="297.9" width="6.3" height="315.9" fill="#f59e0b" opacity="0.45" stroke="#111" stroke-width="0.5"/>
<rect x="766.4" y="297.9" width="6.3" height="315.9" fill="#f59e0b" opacity="0.45" stroke="#111" stroke-width="0.5"/>
<rect x="766.4" y="297.9" width="6.3" height="315.9" fill="#f59e0b" opacity="0.45" stroke="#111" stroke-width="0.5"/>
<rect x="42.8" y="275.9" width="1395.0" height="6.3" fill="#a855f7" opacity="0.45" stroke="#111" stroke-width="0.5"/>
<rect x="50.8" y="279.0" width="6.3" height="130.9" fill="#f59e0b" opacity="0.45" stroke="#111" stroke-width="0.5"/>
<rect x="523.3" y="279.0" width="6.3" height="130.9" fill="#f59e0b" opacity="0.45" stroke="#111" stroke-width="0.5"/>
<rect x="725.8" y="279.0" width="6.3" height="130.9" fill="#f59e0b" opacity="0.45" stroke="#111" stroke-width="0.5"/>
<rect x="815.8" y="279.0" width="6.3" height="319.3" fill="#f59e0b" opacity="0.45" stroke="#111" stroke-width="0.5"/>
<rect x="1355.8" y="279.0" width="6.3" height="319.3" fill="#f59e0b" opacity="0.45" stroke="#111" stroke-width="0.5"/>
<rect x="1423.3" y="279.0" width="6.3" height="319.3" fill="#f59e0b" opacity="0.45" stroke="#111" stroke-width="0.5"/>
<rect x="62.1" y="257.0" width="1443.2" height="6.3" fill="#a855f7" opacity="0.45" stroke="#111" stroke-width="0.5"/>
<rect x="70.2" y="260.1" width="6.3" height="128.7" fill="#f59e0b" opacity="0.45" stroke="#111" stroke-width="0.5"/>
<rect x="590.8" y="260.1" width="6.3" height="149.8" fill="#f59e0b" opacity="0.45" stroke="#111" stroke-width="0.5"/>
<rect x="658.3" y="260.1" width="6.3" height="149.8" fill="#f59e0b" opacity="0.45" stroke="#111" stroke-width="0.5"/>
<rect x="835.2" y="260.1" width="6.3" height="353.7" fill="#f59e0b" opacity="0.45" stroke="#111" stroke-width="0.5"/>
<rect x="1288.3" y="260.1" width="6.3" height="338.2" fill="#f59e0b" opacity="0.45" stroke="#111" stroke-width="0.5"/>
<rect x="1490.9" y="260.1" width="6.3" height="338.2" fill="#f59e0b" opacity="0.45" stroke="#111" stroke-width="0.5"/>
<rect x="110.3" y="238.1" width="787.5" height="6.3" fill="#a855f7" opacity="0.45" stroke="#111" stroke-width="0.5"/>
<rect x="118.4" y="241.2" width="6.3" height="168.7" fill="#f59e0b" opacity="0.45" stroke="#111" stroke-width="0.5"/>
<rect x="883.3" y="241.2" width="6.3" height="357.1" fill="#f59e0b" opacity="0.45" stroke="#111" stroke-width="0.5"/>
<rect x="129.6" y="219.2" width="1192.5" height="6.3" fill="#a855f7" opacity="0.45" stroke="#111" stroke-width="0.5"/>
<rect x="137.7" y="222.3" width="6.3" height="166.5" fill="#f59e0b" opacity="0.45" stroke="#111" stroke-width="0.5"/>
<rect x="504.0" y="222.3" width="6.3" height="166.5" fill="#f59e0b" opacity="0.45" stroke="#111" stroke-width="0.5"/>
<rect x="902.7" y="222.3" width="6.3" height="391.5" fill="#f59e0b" opacity="0.45" stroke="#111" stroke-width="0.5"/>
<rect x="1307.7" y="222.3" width="6.3" height="391.5" fill="#f59e0b" opacity="0.45" stroke="#111" stroke-width="0.5"/>
<rect x="399.6" y="200.3" width="835.6" height="6.3" fill="#a855f7" opacity="0.45" stroke="#111" stroke-width="0.5"/>
<rect x="407.7" y="203.4" width="6.3" height="185.4" fill="#f59e0b" opacity="0.45" stroke="#111" stroke-width="0.5"/>
<rect x="455.8" y="203.4" width="6.3" height="206.5" fill="#f59e0b" opacity="0.45" stroke="#111" stroke-width="0.5"/>
<rect x="1172.7" y="203.4" width="6.3" height="410.4" fill="#f59e0b" opacity="0.45" stroke="#111" stroke-width="0.5"/>
<rect x="1220.8" y="203.4" width="6.3" height="394.9" fill="#f59e0b" opacity="0.45" stroke="#111" stroke-width="0.5"/>
<rect x="467.1" y="181.4" width="1057.5" height="6.3" fill="#a855f7" opacity="0.45" stroke="#111" stroke-width="0.5"/>
<rect x="475.2" y="184.5" width="6.3" height="204.3" fill="#f59e0b" opacity="0.45" stroke="#111" stroke-width="0.5"/>
<rect x="706.5" y="184.5" width="6.3" height="204.3" fill="#f59e0b" opacity="0.45" stroke="#111" stroke-width="0.5"/>
<rect x="1240.2" y="184.5" width="6.3" height="429.3" fill="#f59e0b" opacity="0.45" stroke="#111" stroke-width="0.5"/>
<rect x="1510.2" y="184.5" width="6.3" height="429.3" fill="#f59e0b" opacity="0.45" stroke="#111" stroke-width="0.5"/>
<rect x="177.8" y="162.5" width="1173.2" height="6.3" fill="#a855f7" opacity="0.45" stroke="#111" stroke-width="0.5"/>
<rect x="185.8" y="165.6" width="6.3" height="244.3" fill="#f59e0b" opacity="0.45" stroke="#111" stroke-width="0.5"/>
<rect x="542.7" y="165.6" width="6.3" height="223.2" fill="#f59e0b" opacity="0.45" stroke="#111" stroke-width="0.5"/>
<rect x="610.2" y="165.6" width="6.3" height="223.2" fill="#f59e0b" opacity="0.45" stroke="#111" stroke-width="0.5"/>
<rect x="950.8" y="165.6" width="6.3" height="432.7" fill="#f59e0b" opacity="0.45" stroke="#111" stroke-width="0.5"/>
<rect x="1269.0" y="165.6" width="6.3" height="448.2" fill="#f59e0b" opacity="0.45" stroke="#111" stroke-width="0.5"/>
<rect x="1336.5" y="165.6" width="6.3" height="448.2" fill="#f59e0b" opacity="0.45" stroke="#111" stroke-width="0.5"/>
<rect x="197.1" y="143.6" width="903.1" height="6.3" fill="#a855f7" opacity="0.45" stroke="#111" stroke-width="0.5"/>
<rect x="205.2" y="146.7" width="6.3" height="242.1" fill="#f59e0b" opacity="0.45" stroke="#111" stroke-width="0.5"/>
<rect x="253.3" y="146.7" width="6.3" height="263.2" fill="#f59e0b" opacity="0.45" stroke="#111" stroke-width="0.5"/>
<rect x="320.9" y="146.7" width="6.3" height="263.2" fill="#f59e0b" opacity="0.45" stroke="#111" stroke-width="0.5"/>
<rect x="970.2" y="146.7" width="6.3" height="467.1" fill="#f59e0b" opacity="0.45" stroke="#111" stroke-width="0.5"/>
<rect x="1018.3" y="146.7" width="6.3" height="451.6" fill="#f59e0b" opacity="0.45" stroke="#111" stroke-width="0.5"/>
<rect x="1085.8" y="146.7" width="6.3" height="451.6" fill="#f59e0b" opacity="0.45" stroke="#111" stroke-width="0.5"/>
<rect x="264.6" y="124.6" width="1125.0" height="6.3" fill="#a855f7" opacity="0.45" stroke="#111" stroke-width="0.5"/>
<rect x="272.7" y="127.8" width="6.3" height="261.0" fill="#f59e0b" opacity="0.45" stroke="#111" stroke-width="0.5"/>
<rect x="571.5" y="127.8" width="6.3" height="261.0" fill="#f59e0b" opacity="0.45" stroke="#111" stroke-width="0.5"/>
<rect x="1037.7" y="127.8" width="6.3" height="486.0" fill="#f59e0b" opacity="0.45" stroke="#111" stroke-width="0.5"/>
<rect x="1375.2" y="127.8" width="6.3" height="486.0" fill="#f59e0b" opacity="0.45" stroke="#111" stroke-width="0.5"/>
<rect x="332.1" y="105.8" width="1125.0" height="6.3" fill="#a855f7" opacity="0.45" stroke="#111" stroke-width="0.5"/>
<rect x="340.2" y="108.9" width="6.3" height="279.9" fill="#f59e0b" opacity="0.45" stroke="#111" stroke-width="0.5"/>
<rect x="639.0" y="108.9" width="6.3" height="279.9" fill="#f59e0b" opacity="0.45" stroke="#111" stroke-width="0.5"/>
<rect x="1105.2" y="108.9" width="6.3" height="504.9" fill="#f59e0b" opacity="0.45" stroke="#111" stroke-width="0.5"/>
<rect x="1442.7" y="108.9" width="6.3" height="504.9" fill="#f59e0b" opacity="0.45" stroke="#111" stroke-width="0.5"/>
<rect x="380.2" y="86.9" width="1105.7" height="6.3" fill="#a855f7" opacity="0.45" stroke="#111" stroke-width="0.5"/>
<rect x="388.3" y="90.0" width="6.3" height="319.9" fill="#f59e0b" opacity="0.45" stroke="#111" stroke-width="0.5"/>
<rect x="677.7" y="90.0" width="6.3" height="298.8" fill="#f59e0b" opacity="0.45" stroke="#111" stroke-width="0.5"/>
<rect x="745.2" y="90.0" width="6.3" height="298.8" fill="#f59e0b" opacity="0.45" stroke="#111" stroke-width="0.5"/>
<rect x="1153.3" y="90.0" width="6.3" height="508.3" fill="#f59e0b" opacity="0.45" stroke="#111" stroke-width="0.5"/>
<rect x="1404.0" y="90.0" width="6.3" height="523.8" fill="#f59e0b" opacity="0.45" stroke="#111" stroke-width="0.5"/>
<rect x="1471.5" y="90.0" width="6.3" height="523.8" fill="#f59e0b" opacity="0.45" stroke="#111" stroke-width="0.5"/>
<rect x="450.9" y="313.7" width="1100.7" height="6.3" fill="#a855f7" opacity="0.45" stroke="#111" stroke-width="0.5"/>
<rect x="1215.9" y="294.8" width="335.7" height="6.3" fill="#a855f7" opacity="0.45" stroke="#111" stroke-width="0.5"/>
<rect x="897.8" y="238.1" width="653.9" height="6.3" fill="#a855f7" opacity="0.45" stroke="#111" stroke-width="0.5"/>
<rect x="1235.2" y="200.3" width="316.4" height="6.3" fill="#a855f7" opacity="0.45" stroke="#111" stroke-width="0.5"/>
<rect x="1437.8" y="275.9" width="113.9" height="6.3" fill="#a855f7" opacity="0.45" stroke="#111" stroke-width="0.5"/>
<text x="1524.6" y="316.8" font-size="14" font-weight="bold" text-anchor="middle">VDD</text>
<text x="1524.6" y="297.9" font-size="14" font-weight="bold" text-anchor="middle">VSS</text>
<text x="1524.6" y="241.2" font-size="14" font-weight="bold" text-anchor="middle">D</text>
<text x="1524.6" y="203.4" font-size="14" font-weight="bold" text-anchor="middle">Q</text>
<text x="1524.6" y="279.0" font-size="14" font-weight="bold" text-anchor="middle">CLK</text>
</svg>
