<svg xmlns="http://www.w3.org/2000/svg" width="1200.0" height="2282.2" viewBox="0 0 1200.0 2282.2">
<rect width="100%" height="100%" fill="#fbfbf8"/>
<rect x="0" y="0" width="1200.0" height="2282.2" fill="none" stroke="#222" stroke-width="2"/>
<rect x="8.03" y="1564.38" width="183.57" height="710.41" fill="#4c78a8" fill-opacity="0.34" stroke="#4c78a8" stroke-width="1.2"/>
<text x="12.03" y="1577.38" font-family="monospace" font-size="12" fill="#202020">TIMING_CONTROL</text>
<rect x="10.48" y="1841.88" width="181.12" height="432.91" fill="#f58518" fill-opacity="0.34" stroke="#f58518" stroke-width="1.2"/>
<text x="14.48" y="1854.88" font-family="monospace" font-size="12" fill="#202020">control_dff_array</text>
<rect x="367.14" y="1932.74" width="742.84" height="338.99" fill="#54a24b" fill-opacity="0.34" stroke="#54a24b" stroke-width="1.2"/>
<text x="371.14" y="1945.74" font-family="monospace" font-size="12" fill="#202020">data_dff_array</text>
<rect x="367.14" y="1486.52" width="819.33" height="431.69" fill="#e45756" fill-opacity="0.34" stroke="#e45756" stroke-width="1.2"/>
<text x="371.14" y="1499.52" font-family="monospace" font-size="12" fill="#202020">SA_SWITCH_LATCH_MUX</text>
<rect x="367.14" y="1830.63" width="819.33" height="87.58" fill="#72b7b2" fill-opacity="0.34" stroke="#72b7b2" stroke-width="1.2"/>
<text x="371.14" y="1843.63" font-family="monospace" font-size="12" fill="#202020">data_latch_trigate_array_bbox</text>
<rect x="8.03" y="1738.31" width="63.03" height="96.68" fill="#b279a2" fill-opacity="0.34" stroke="#b279a2" stroke-width="1.2"/>
<text x="12.03" y="1751.31" font-family="monospace" font-size="12" fill="#202020">timing_control_glue_bbox</text>
<rect x="364.08" y="1684.93" width="822.39" height="127.73" fill="#ff9da6" fill-opacity="0.34" stroke="#ff9da6" stroke-width="1.2"/>
<text x="368.08" y="1697.93" font-family="monospace" font-size="12" fill="#202020">write_driver_array_bbox</text>
<rect x="8.03" y="1564.38" width="87.73" height="167.05" fill="#9d755d" fill-opacity="0.34" stroke="#9d755d" stroke-width="1.2"/>
<text x="12.03" y="1577.38" font-family="monospace" font-size="12" fill="#202020">replica_timing_delay_bbox</text>
<rect x="366.07" y="1486.52" width="820.40" height="183.87" fill="#bab0ac" fill-opacity="0.34" stroke="#bab0ac" stroke-width="1.2"/>
<text x="370.07" y="1499.52" font-family="monospace" font-size="12" fill="#202020">sense_amp_array_bbox</text>
<rect x="102.65" y="1426.71" width="25.16" height="45.28" fill="#59a14f" fill-opacity="0.34" stroke="#59a14f" stroke-width="1.2"/>
<rect x="363.69" y="1414.47" width="693.66" height="57.52" fill="#edc948" fill-opacity="0.34" stroke="#edc948" stroke-width="1.2"/>
<text x="367.69" y="1427.47" font-family="monospace" font-size="12" fill="#202020">column_mux_array_bbox</text>
<rect x="241.55" y="62.80" width="93.16" height="1342.80" fill="#af7aa1" fill-opacity="0.34" stroke="#af7aa1" stroke-width="1.2"/>
<text x="245.55" y="75.80" font-family="monospace" font-size="12" fill="#202020">WL_DRIVER</text>
<rect x="342.66" y="62.95" width="27.38" height="1342.49" fill="#4c78a8" fill-opacity="0.34" stroke="#4c78a8" stroke-width="1.2"/>
<rect x="364.23" y="62.95" width="696.03" height="1342.49" fill="#f58518" fill-opacity="0.34" stroke="#f58518" stroke-width="1.2"/>
<text x="368.23" y="75.95" font-family="monospace" font-size="12" fill="#202020">ARRAY</text>
<rect x="1054.45" y="62.95" width="27.38" height="1342.49" fill="#54a24b" fill-opacity="0.34" stroke="#54a24b" stroke-width="1.2"/>
<rect x="1076.02" y="62.95" width="27.38" height="1342.49" fill="#e45756" fill-opacity="0.34" stroke="#e45756" stroke-width="1.2"/>
<rect x="203.68" y="63.56" width="31.74" height="1341.27" fill="#72b7b2" fill-opacity="0.34" stroke="#72b7b2" stroke-width="1.2"/>
<rect x="364.77" y="8.03" width="692.66" height="43.44" fill="#b279a2" fill-opacity="0.34" stroke="#b279a2" stroke-width="1.2"/>
<text x="368.77" y="21.03" font-family="monospace" font-size="12" fill="#202020">precharge_array_bbox</text>
<rect x="0.00" y="63.56" width="203.68" height="1341.27" fill="#d62728" fill-opacity="0.30" stroke="#8c1d18" stroke-dasharray="5 3" stroke-width="1"/>
<rect x="1103.40" y="62.95" width="96.60" height="1342.49" fill="#d62728" fill-opacity="0.18" stroke="#8c1d18" stroke-dasharray="5 3" stroke-width="1"/>
<rect x="0.00" y="1486.52" width="366.07" height="77.86" fill="#d62728" fill-opacity="0.18" stroke="#8c1d18" stroke-dasharray="5 3" stroke-width="1"/>
<rect x="95.76" y="1564.38" width="270.30" height="79.09" fill="#d62728" fill-opacity="0.18" stroke="#8c1d18" stroke-dasharray="5 3" stroke-width="1"/>
<rect x="71.06" y="1812.66" width="1128.94" height="17.97" fill="#d62728" fill-opacity="0.18" stroke="#8c1d18" stroke-dasharray="5 3" stroke-width="1"/>
<rect x="0.00" y="1471.99" width="1200.00" height="14.53" fill="#d62728" fill-opacity="0.18" stroke="#8c1d18" stroke-dasharray="5 3" stroke-width="1"/>
<rect x="95.76" y="1670.39" width="1104.24" height="14.53" fill="#d62728" fill-opacity="0.18" stroke="#8c1d18" stroke-dasharray="5 3" stroke-width="1"/>
<rect x="0.00" y="8.03" width="364.77" height="43.44" fill="#d62728" fill-opacity="0.18" stroke="#8c1d18" stroke-dasharray="5 3" stroke-width="1"/>
<rect x="191.60" y="2190.04" width="175.54" height="81.69" fill="#d62728" fill-opacity="0.18" stroke="#8c1d18" stroke-dasharray="5 3" stroke-width="1"/>
<rect x="191.60" y="2102.24" width="175.54" height="81.69" fill="#d62728" fill-opacity="0.18" stroke="#8c1d18" stroke-dasharray="5 3" stroke-width="1"/>
<rect x="191.60" y="2014.43" width="175.54" height="81.69" fill="#d62728" fill-opacity="0.18" stroke="#8c1d18" stroke-dasharray="5 3" stroke-width="1"/>
<rect x="191.60" y="1926.62" width="175.54" height="81.69" fill="#d62728" fill-opacity="0.18" stroke="#8c1d18" stroke-dasharray="5 3" stroke-width="1"/>
</svg>