<svg xmlns="http://www.w3.org/2000/svg" width="1200.0" height="1328.3" viewBox="0 0 1200.0 1328.3">
<rect width="100%" height="100%" fill="#fbfbf8"/>
<rect x="0" y="0" width="1200.0" height="1328.3" fill="none" stroke="#222" stroke-width="2"/>
<rect x="7.36" y="587.69" width="168.33" height="733.79" fill="#4c78a8" fill-opacity="0.34" stroke="#4c78a8" stroke-width="1.2"/>
<text x="11.36" y="600.69" font-family="monospace" font-size="12" fill="#202020">TIMING_CONTROL</text>
<rect x="9.61" y="924.50" width="166.09" height="396.98" fill="#f58518" fill-opacity="0.34" stroke="#f58518" stroke-width="1.2"/>
<text x="13.61" y="937.50" font-family="monospace" font-size="12" fill="#202020">control_dff_array</text>
<rect x="342.00" y="1249.38" width="681.19" height="69.30" fill="#54a24b" fill-opacity="0.34" stroke="#54a24b" stroke-width="1.2"/>
<text x="346.00" y="1262.38" font-family="monospace" font-size="12" fill="#202020">data_dff_array</text>
<rect x="342.00" y="840.19" width="723.83" height="395.86" fill="#e45756" fill-opacity="0.34" stroke="#e45756" stroke-width="1.2"/>
<text x="346.00" y="853.19" font-family="monospace" font-size="12" fill="#202020">SA_SWITCH_LATCH_MUX</text>
<rect x="342.00" y="1155.74" width="723.83" height="80.31" fill="#72b7b2" fill-opacity="0.34" stroke="#72b7b2" stroke-width="1.2"/>
<text x="346.00" y="1168.74" font-family="monospace" font-size="12" fill="#202020">data_latch_trigate_array_bbox</text>
<rect x="339.19" y="1022.13" width="726.64" height="117.13" fill="#b279a2" fill-opacity="0.34" stroke="#b279a2" stroke-width="1.2"/>
<text x="343.19" y="1035.13" font-family="monospace" font-size="12" fill="#202020">write_driver_array_bbox</text>
<rect x="341.01" y="840.19" width="724.81" height="168.61" fill="#ff9da6" fill-opacity="0.34" stroke="#ff9da6" stroke-width="1.2"/>
<text x="345.01" y="853.19" font-family="monospace" font-size="12" fill="#202020">sense_amp_array_bbox</text>
<rect x="7.36" y="832.89" width="48.40" height="83.04" fill="#9d755d" fill-opacity="0.34" stroke="#9d755d" stroke-width="1.2"/>
<rect x="338.84" y="774.12" width="801.33" height="52.74" fill="#bab0ac" fill-opacity="0.34" stroke="#bab0ac" stroke-width="1.2"/>
<text x="342.84" y="787.12" font-family="monospace" font-size="12" fill="#202020">column_mux_array_bbox</text>
<rect x="7.36" y="741.29" width="54.43" height="83.04" fill="#59a14f" fill-opacity="0.34" stroke="#59a14f" stroke-width="1.2"/>
<rect x="314.22" y="63.34" width="25.11" height="702.51" fill="#edc948" fill-opacity="0.34" stroke="#edc948" stroke-width="1.2"/>
<rect x="339.33" y="63.34" width="803.51" height="702.51" fill="#af7aa1" fill-opacity="0.34" stroke="#af7aa1" stroke-width="1.2"/>
<text x="343.33" y="76.34" font-family="monospace" font-size="12" fill="#202020">ARRAY</text>
<rect x="1142.84" y="63.34" width="25.11" height="702.51" fill="#4c78a8" fill-opacity="0.34" stroke="#4c78a8" stroke-width="1.2"/>
<rect x="1167.95" y="63.34" width="25.11" height="702.51" fill="#f58518" fill-opacity="0.34" stroke="#f58518" stroke-width="1.2"/>
<rect x="212.10" y="87.46" width="85.43" height="676.28" fill="#54a24b" fill-opacity="0.34" stroke="#54a24b" stroke-width="1.2"/>
<text x="216.10" y="100.46" font-family="monospace" font-size="12" fill="#202020">WL_DRIVER</text>
<rect x="186.78" y="88.16" width="29.11" height="674.87" fill="#e45756" fill-opacity="0.34" stroke="#e45756" stroke-width="1.2"/>
<rect x="7.36" y="587.69" width="61.65" height="145.05" fill="#72b7b2" fill-opacity="0.34" stroke="#72b7b2" stroke-width="1.2"/>
<text x="11.36" y="600.69" font-family="monospace" font-size="12" fill="#202020">replica_timing_delay_bbox</text>
<rect x="339.82" y="7.36" width="800.42" height="39.84" fill="#b279a2" fill-opacity="0.34" stroke="#b279a2" stroke-width="1.2"/>
<text x="343.82" y="20.36" font-family="monospace" font-size="12" fill="#202020">precharge_array_bbox</text>
<rect x="1065.83" y="840.19" width="134.17" height="168.61" fill="#d62728" fill-opacity="0.30" stroke="#8c1d18" stroke-dasharray="5 3" stroke-width="1"/>
<rect x="0.00" y="47.20" width="1200.00" height="16.13" fill="#d62728" fill-opacity="0.18" stroke="#8c1d18" stroke-dasharray="5 3" stroke-width="1"/>
<rect x="175.70" y="1022.13" width="163.49" height="117.13" fill="#d62728" fill-opacity="0.18" stroke="#8c1d18" stroke-dasharray="5 3" stroke-width="1"/>
<rect x="175.70" y="1139.26" width="1024.30" height="16.48" fill="#d62728" fill-opacity="0.18" stroke="#8c1d18" stroke-dasharray="5 3" stroke-width="1"/>
<rect x="1065.83" y="1022.13" width="134.17" height="117.13" fill="#d62728" fill-opacity="0.18" stroke="#8c1d18" stroke-dasharray="5 3" stroke-width="1"/>
<rect x="175.70" y="924.50" width="165.32" height="84.31" fill="#d62728" fill-opacity="0.18" stroke="#8c1d18" stroke-dasharray="5 3" stroke-width="1"/>
<rect x="61.79" y="774.12" width="277.05" height="50.22" fill="#d62728" fill-opacity="0.18" stroke="#8c1d18" stroke-dasharray="5 3" stroke-width="1"/>
<rect x="175.70" y="1008.80" width="1024.30" height="13.33" fill="#d62728" fill-opacity="0.18" stroke="#8c1d18" stroke-dasharray="5 3" stroke-width="1"/>
<rect x="0.00" y="7.36" width="339.82" height="39.84" fill="#d62728" fill-opacity="0.18" stroke="#8c1d18" stroke-dasharray="5 3" stroke-width="1"/>
<rect x="175.70" y="1155.74" width="166.30" height="80.31" fill="#d62728" fill-opacity="0.18" stroke="#8c1d18" stroke-dasharray="5 3" stroke-width="1"/>
<rect x="1023.18" y="1243.77" width="176.82" height="74.91" fill="#d62728" fill-opacity="0.18" stroke="#8c1d18" stroke-dasharray="5 3" stroke-width="1"/>
<rect x="175.70" y="1243.77" width="166.30" height="74.91" fill="#d62728" fill-opacity="0.18" stroke="#8c1d18" stroke-dasharray="5 3" stroke-width="1"/>
</svg>