<svg xmlns="http://www.w3.org/2000/svg" width="1200.0" height="1342.0" viewBox="0 0 1200.0 1342.0">
<rect width="100%" height="100%" fill="#fbfbf8"/>
<rect x="0" y="0" width="1200.0" height="1342.0" fill="none" stroke="#222" stroke-width="2"/>
<rect x="7.36" y="586.29" width="168.33" height="748.94" fill="#4c78a8" fill-opacity="0.34" stroke="#4c78a8" stroke-width="1.2"/>
<text x="11.36" y="599.29" font-family="monospace" font-size="12" fill="#202020">TIMING_CONTROL</text>
<rect x="9.61" y="938.24" width="166.09" height="396.98" fill="#f58518" fill-opacity="0.34" stroke="#f58518" stroke-width="1.2"/>
<text x="13.61" y="951.24" font-family="monospace" font-size="12" fill="#202020">control_dff_array</text>
<rect x="342.00" y="1263.12" width="681.19" height="69.30" fill="#54a24b" fill-opacity="0.34" stroke="#54a24b" stroke-width="1.2"/>
<text x="346.00" y="1276.12" font-family="monospace" font-size="12" fill="#202020">data_dff_array</text>
<rect x="342.00" y="853.94" width="723.83" height="395.86" fill="#e45756" fill-opacity="0.34" stroke="#e45756" stroke-width="1.2"/>
<text x="346.00" y="866.94" font-family="monospace" font-size="12" fill="#202020">SA_SWITCH_LATCH_MUX</text>
<rect x="342.00" y="1169.49" width="723.83" height="80.31" fill="#72b7b2" fill-opacity="0.34" stroke="#72b7b2" stroke-width="1.2"/>
<text x="346.00" y="1182.49" font-family="monospace" font-size="12" fill="#202020">data_latch_trigate_array_bbox</text>
<rect x="339.19" y="1035.88" width="726.64" height="117.13" fill="#b279a2" fill-opacity="0.34" stroke="#b279a2" stroke-width="1.2"/>
<text x="343.19" y="1048.88" font-family="monospace" font-size="12" fill="#202020">write_driver_array_bbox</text>
<rect x="341.01" y="853.94" width="724.81" height="168.61" fill="#ff9da6" fill-opacity="0.34" stroke="#ff9da6" stroke-width="1.2"/>
<text x="345.01" y="866.94" font-family="monospace" font-size="12" fill="#202020">sense_amp_array_bbox</text>
<rect x="7.36" y="843.28" width="57.79" height="88.66" fill="#9d755d" fill-opacity="0.34" stroke="#9d755d" stroke-width="1.2"/>
<text x="11.36" y="856.28" font-family="monospace" font-size="12" fill="#202020">timing_control_glue_bbox</text>
<rect x="338.84" y="787.87" width="801.33" height="52.74" fill="#bab0ac" fill-opacity="0.34" stroke="#bab0ac" stroke-width="1.2"/>
<text x="342.84" y="800.87" font-family="monospace" font-size="12" fill="#202020">column_mux_array_bbox</text>
<rect x="7.36" y="745.78" width="63.83" height="91.18" fill="#59a14f" fill-opacity="0.34" stroke="#59a14f" stroke-width="1.2"/>
<text x="11.36" y="758.78" font-family="monospace" font-size="12" fill="#202020">column_select_logic_bbox</text>
<rect x="221.50" y="9.61" width="85.43" height="770.12" fill="#edc948" fill-opacity="0.34" stroke="#edc948" stroke-width="1.2"/>
<text x="225.50" y="22.61" font-family="monospace" font-size="12" fill="#202020">WL_DRIVER</text>
<rect x="314.22" y="77.08" width="25.11" height="702.51" fill="#af7aa1" fill-opacity="0.34" stroke="#af7aa1" stroke-width="1.2"/>
<rect x="339.33" y="77.08" width="803.51" height="702.51" fill="#4c78a8" fill-opacity="0.34" stroke="#4c78a8" stroke-width="1.2"/>
<text x="343.33" y="90.08" font-family="monospace" font-size="12" fill="#202020">ARRAY</text>
<rect x="1142.84" y="77.08" width="25.11" height="702.51" fill="#f58518" fill-opacity="0.34" stroke="#f58518" stroke-width="1.2"/>
<rect x="1167.95" y="77.08" width="25.11" height="702.51" fill="#54a24b" fill-opacity="0.34" stroke="#54a24b" stroke-width="1.2"/>
<rect x="186.78" y="10.31" width="29.11" height="768.72" fill="#e45756" fill-opacity="0.34" stroke="#e45756" stroke-width="1.2"/>
<rect x="7.36" y="586.29" width="80.45" height="153.18" fill="#72b7b2" fill-opacity="0.34" stroke="#72b7b2" stroke-width="1.2"/>
<text x="11.36" y="599.29" font-family="monospace" font-size="12" fill="#202020">replica_timing_delay_bbox</text>
<rect x="339.82" y="21.11" width="800.42" height="39.84" fill="#b279a2" fill-opacity="0.34" stroke="#b279a2" stroke-width="1.2"/>
<text x="343.82" y="34.11" font-family="monospace" font-size="12" fill="#202020">precharge_array_bbox</text>
<rect x="1065.83" y="853.94" width="134.17" height="168.61" fill="#d62728" fill-opacity="0.30" stroke="#8c1d18" stroke-dasharray="5 3" stroke-width="1"/>
<rect x="175.70" y="1035.88" width="163.49" height="117.13" fill="#d62728" fill-opacity="0.18" stroke="#8c1d18" stroke-dasharray="5 3" stroke-width="1"/>
<rect x="175.70" y="1153.01" width="1024.30" height="16.48" fill="#d62728" fill-opacity="0.18" stroke="#8c1d18" stroke-dasharray="5 3" stroke-width="1"/>
<rect x="1065.83" y="1035.88" width="134.17" height="117.13" fill="#d62728" fill-opacity="0.18" stroke="#8c1d18" stroke-dasharray="5 3" stroke-width="1"/>
<rect x="306.93" y="60.95" width="893.07" height="16.13" fill="#d62728" fill-opacity="0.18" stroke="#8c1d18" stroke-dasharray="5 3" stroke-width="1"/>
<rect x="175.70" y="938.24" width="165.32" height="84.31" fill="#d62728" fill-opacity="0.18" stroke="#8c1d18" stroke-dasharray="5 3" stroke-width="1"/>
<rect x="175.70" y="1022.55" width="1024.30" height="13.33" fill="#d62728" fill-opacity="0.18" stroke="#8c1d18" stroke-dasharray="5 3" stroke-width="1"/>
<rect x="175.70" y="1169.49" width="166.30" height="80.31" fill="#d62728" fill-opacity="0.18" stroke="#8c1d18" stroke-dasharray="5 3" stroke-width="1"/>
<rect x="1023.18" y="1257.51" width="176.82" height="74.91" fill="#d62728" fill-opacity="0.18" stroke="#8c1d18" stroke-dasharray="5 3" stroke-width="1"/>
<rect x="175.70" y="1257.51" width="166.30" height="74.91" fill="#d62728" fill-opacity="0.18" stroke="#8c1d18" stroke-dasharray="5 3" stroke-width="1"/>
<rect x="65.16" y="843.28" width="1134.84" height="10.66" fill="#d62728" fill-opacity="0.18" stroke="#8c1d18" stroke-dasharray="5 3" stroke-width="1"/>
<rect x="0.00" y="0.00" width="1200.00" height="9.61" fill="#d62728" fill-opacity="0.18" stroke="#8c1d18" stroke-dasharray="5 3" stroke-width="1"/>
</svg>