<svg xmlns="http://www.w3.org/2000/svg" width="1200.0" height="1505.6" viewBox="0 0 1200.0 1505.6">
<rect width="100%" height="100%" fill="#fbfbf8"/>
<rect x="0" y="0" width="1200.0" height="1505.6" fill="none" stroke="#222" stroke-width="2"/>
<rect x="8.60" y="620.03" width="196.60" height="877.66" fill="#4c78a8" fill-opacity="0.34" stroke="#4c78a8" stroke-width="1.2"/>
<text x="12.60" y="633.03" font-family="monospace" font-size="12" fill="#202020">TIMING_CONTROL</text>
<rect x="11.22" y="1034.04" width="193.98" height="463.65" fill="#f58518" fill-opacity="0.34" stroke="#f58518" stroke-width="1.2"/>
<text x="15.22" y="1047.04" font-family="monospace" font-size="12" fill="#202020">control_dff_array</text>
<rect x="393.20" y="1413.48" width="795.58" height="80.93" fill="#54a24b" fill-opacity="0.34" stroke="#54a24b" stroke-width="1.2"/>
<text x="397.20" y="1426.48" font-family="monospace" font-size="12" fill="#202020">data_dff_array</text>
<rect x="393.20" y="935.57" width="671.06" height="462.34" fill="#e45756" fill-opacity="0.34" stroke="#e45756" stroke-width="1.2"/>
<text x="397.20" y="948.57" font-family="monospace" font-size="12" fill="#202020">SA_SWITCH_LATCH_MUX</text>
<rect x="393.20" y="1304.12" width="671.06" height="93.79" fill="#72b7b2" fill-opacity="0.34" stroke="#72b7b2" stroke-width="1.2"/>
<text x="397.20" y="1317.12" font-family="monospace" font-size="12" fill="#202020">data_latch_trigate_array_bbox</text>
<rect x="389.92" y="1148.06" width="674.34" height="136.80" fill="#b279a2" fill-opacity="0.34" stroke="#b279a2" stroke-width="1.2"/>
<text x="393.92" y="1161.06" font-family="monospace" font-size="12" fill="#202020">write_driver_array_bbox</text>
<rect x="392.05" y="935.57" width="672.21" height="196.93" fill="#ff9da6" fill-opacity="0.34" stroke="#ff9da6" stroke-width="1.2"/>
<text x="396.05" y="948.57" font-family="monospace" font-size="12" fill="#202020">sense_amp_array_bbox</text>
<rect x="8.60" y="920.17" width="60.95" height="106.49" fill="#9d755d" fill-opacity="0.34" stroke="#9d755d" stroke-width="1.2"/>
<text x="12.60" y="933.17" font-family="monospace" font-size="12" fill="#202020">timing_control_glue_bbox</text>
<rect x="389.51" y="858.41" width="742.90" height="61.60" fill="#bab0ac" fill-opacity="0.34" stroke="#bab0ac" stroke-width="1.2"/>
<text x="393.51" y="871.41" font-family="monospace" font-size="12" fill="#202020">column_mux_array_bbox</text>
<rect x="8.60" y="806.31" width="67.99" height="106.49" fill="#59a14f" fill-opacity="0.34" stroke="#59a14f" stroke-width="1.2"/>
<text x="12.60" y="819.31" font-family="monospace" font-size="12" fill="#202020">column_select_logic_bbox</text>
<rect x="258.69" y="11.22" width="424.49" height="837.68" fill="#edc948" fill-opacity="0.34" stroke="#edc948" stroke-width="1.2"/>
<text x="262.69" y="24.22" font-family="monospace" font-size="12" fill="#202020">WL_DRIVER</text>
<rect x="366.99" y="126.56" width="29.33" height="722.18" fill="#af7aa1" fill-opacity="0.34" stroke="#af7aa1" stroke-width="1.2"/>
<rect x="390.09" y="126.56" width="745.44" height="722.18" fill="#4c78a8" fill-opacity="0.34" stroke="#4c78a8" stroke-width="1.2"/>
<text x="394.09" y="139.56" font-family="monospace" font-size="12" fill="#202020">ARRAY</text>
<rect x="1129.31" y="126.56" width="29.33" height="722.18" fill="#f58518" fill-opacity="0.34" stroke="#f58518" stroke-width="1.2"/>
<rect x="1152.41" y="126.56" width="29.33" height="722.18" fill="#54a24b" fill-opacity="0.34" stroke="#54a24b" stroke-width="1.2"/>
<rect x="218.14" y="11.22" width="358.71" height="836.86" fill="#e45756" fill-opacity="0.34" stroke="#e45756" stroke-width="1.2"/>
<text x="222.14" y="24.22" font-family="monospace" font-size="12" fill="#202020">DECODER</text>
<rect x="8.60" y="620.03" width="80.85" height="178.91" fill="#72b7b2" fill-opacity="0.34" stroke="#72b7b2" stroke-width="1.2"/>
<text x="12.60" y="633.03" font-family="monospace" font-size="12" fill="#202020">replica_timing_delay_bbox</text>
<rect x="390.66" y="67.75" width="741.84" height="46.53" fill="#b279a2" fill-opacity="0.34" stroke="#b279a2" stroke-width="1.2"/>
<text x="394.66" y="80.75" font-family="monospace" font-size="12" fill="#202020">precharge_array_bbox</text>
<rect x="1064.26" y="935.57" width="135.74" height="196.93" fill="#d62728" fill-opacity="0.30" stroke="#8c1d18" stroke-dasharray="5 3" stroke-width="1"/>
<rect x="683.19" y="11.22" width="516.81" height="49.31" fill="#d62728" fill-opacity="0.18" stroke="#8c1d18" stroke-dasharray="5 3" stroke-width="1"/>
<rect x="205.20" y="1148.06" width="184.72" height="136.80" fill="#d62728" fill-opacity="0.18" stroke="#8c1d18" stroke-dasharray="5 3" stroke-width="1"/>
<rect x="205.20" y="1284.87" width="994.80" height="19.25" fill="#d62728" fill-opacity="0.18" stroke="#8c1d18" stroke-dasharray="5 3" stroke-width="1"/>
<rect x="0.00" y="11.22" width="393.20" height="48.49" fill="#d62728" fill-opacity="0.18" stroke="#8c1d18" stroke-dasharray="5 3" stroke-width="1"/>
<rect x="1064.26" y="1148.06" width="135.74" height="136.80" fill="#d62728" fill-opacity="0.18" stroke="#8c1d18" stroke-dasharray="5 3" stroke-width="1"/>
<rect x="205.20" y="1034.04" width="186.85" height="98.46" fill="#d62728" fill-opacity="0.18" stroke="#8c1d18" stroke-dasharray="5 3" stroke-width="1"/>
<rect x="205.20" y="1304.12" width="188.00" height="93.79" fill="#d62728" fill-opacity="0.18" stroke="#8c1d18" stroke-dasharray="5 3" stroke-width="1"/>
<rect x="69.55" y="920.17" width="1130.45" height="15.40" fill="#d62728" fill-opacity="0.18" stroke="#8c1d18" stroke-dasharray="5 3" stroke-width="1"/>
<rect x="205.20" y="1406.92" width="188.00" height="87.49" fill="#d62728" fill-opacity="0.18" stroke="#8c1d18" stroke-dasharray="5 3" stroke-width="1"/>
<rect x="69.55" y="978.17" width="322.51" height="48.49" fill="#d62728" fill-opacity="0.18" stroke="#8c1d18" stroke-dasharray="5 3" stroke-width="1"/>
<rect x="205.20" y="1132.50" width="994.80" height="15.56" fill="#d62728" fill-opacity="0.18" stroke="#8c1d18" stroke-dasharray="5 3" stroke-width="1"/>
</svg>