<svg xmlns="http://www.w3.org/2000/svg" width="1200.0" height="2359.9" viewBox="0 0 1200.0 2359.9">
<rect width="100%" height="100%" fill="#fbfbf8"/>
<rect x="0" y="0" width="1200.0" height="2359.9" fill="none" stroke="#222" stroke-width="2"/>
<rect x="11.07" y="1443.35" width="244.62" height="906.35" fill="#4c78a8" fill-opacity="0.34" stroke="#4c78a8" stroke-width="1.2"/>
<text x="15.07" y="1456.35" font-family="monospace" font-size="12" fill="#202020">TIMING_CONTROL</text>
<rect x="14.45" y="1873.97" width="241.24" height="475.74" fill="#f58518" fill-opacity="0.34" stroke="#f58518" stroke-width="1.2"/>
<text x="18.45" y="1886.97" font-family="monospace" font-size="12" fill="#202020">control_dff_array</text>
<rect x="514.12" y="1873.97" width="482.49" height="475.74" fill="#54a24b" fill-opacity="0.34" stroke="#54a24b" stroke-width="1.2"/>
<text x="518.12" y="1886.97" font-family="monospace" font-size="12" fill="#202020">data_dff_array</text>
<rect x="11.07" y="1741.22" width="78.45" height="123.26" fill="#e45756" fill-opacity="0.34" stroke="#e45756" stroke-width="1.2"/>
<text x="15.07" y="1754.22" font-family="monospace" font-size="12" fill="#202020">timing_control_glue_bbox</text>
<rect x="514.12" y="1263.05" width="597.42" height="595.10" fill="#72b7b2" fill-opacity="0.34" stroke="#72b7b2" stroke-width="1.2"/>
<text x="518.12" y="1276.05" font-family="monospace" font-size="12" fill="#202020">SA_SWITCH_LATCH_MUX</text>
<rect x="514.12" y="1737.42" width="597.42" height="120.73" fill="#b279a2" fill-opacity="0.34" stroke="#b279a2" stroke-width="1.2"/>
<text x="518.12" y="1750.42" font-family="monospace" font-size="12" fill="#202020">data_latch_trigate_array_bbox</text>
<rect x="11.07" y="1669.31" width="34.69" height="62.42" fill="#ff9da6" fill-opacity="0.34" stroke="#ff9da6" stroke-width="1.2"/>
<rect x="509.90" y="1536.56" width="601.63" height="176.08" fill="#9d755d" fill-opacity="0.34" stroke="#9d755d" stroke-width="1.2"/>
<text x="513.90" y="1549.56" font-family="monospace" font-size="12" fill="#202020">write_driver_array_bbox</text>
<rect x="11.07" y="1443.35" width="104.07" height="216.47" fill="#bab0ac" fill-opacity="0.34" stroke="#bab0ac" stroke-width="1.2"/>
<text x="15.07" y="1456.35" font-family="monospace" font-size="12" fill="#202020">replica_timing_delay_bbox</text>
<rect x="512.64" y="1263.05" width="598.89" height="253.48" fill="#59a14f" fill-opacity="0.34" stroke="#59a14f" stroke-width="1.2"/>
<text x="516.64" y="1276.05" font-family="monospace" font-size="12" fill="#202020">sense_amp_array_bbox</text>
<rect x="509.38" y="1163.73" width="600.69" height="79.29" fill="#edc948" fill-opacity="0.34" stroke="#edc948" stroke-width="1.2"/>
<text x="513.38" y="1176.73" font-family="monospace" font-size="12" fill="#202020">column_mux_array_bbox</text>
<rect x="324.54" y="200.97" width="128.42" height="950.53" fill="#af7aa1" fill-opacity="0.34" stroke="#af7aa1" stroke-width="1.2"/>
<text x="328.54" y="213.97" font-family="monospace" font-size="12" fill="#202020">WL_DRIVER</text>
<rect x="472.37" y="95.21" width="37.75" height="1056.08" fill="#4c78a8" fill-opacity="0.34" stroke="#4c78a8" stroke-width="1.2"/>
<rect x="510.11" y="95.21" width="603.95" height="1056.08" fill="#f58518" fill-opacity="0.34" stroke="#f58518" stroke-width="1.2"/>
<text x="514.11" y="108.21" font-family="monospace" font-size="12" fill="#202020">ARRAY</text>
<rect x="1114.07" y="95.21" width="37.75" height="1056.08" fill="#54a24b" fill-opacity="0.34" stroke="#54a24b" stroke-width="1.2"/>
<rect x="1151.81" y="95.21" width="37.75" height="1056.08" fill="#e45756" fill-opacity="0.34" stroke="#e45756" stroke-width="1.2"/>
<rect x="280.78" y="202.02" width="43.76" height="948.42" fill="#72b7b2" fill-opacity="0.34" stroke="#72b7b2" stroke-width="1.2"/>
<rect x="510.85" y="11.07" width="599.31" height="59.89" fill="#b279a2" fill-opacity="0.34" stroke="#b279a2" stroke-width="1.2"/>
<text x="514.85" y="24.07" font-family="monospace" font-size="12" fill="#202020">precharge_array_bbox</text>
<rect x="0.00" y="202.02" width="280.78" height="948.42" fill="#d62728" fill-opacity="0.30" stroke="#8c1d18" stroke-dasharray="5 3" stroke-width="1"/>
<rect x="0.00" y="1263.05" width="512.64" height="180.30" fill="#d62728" fill-opacity="0.18" stroke="#8c1d18" stroke-dasharray="5 3" stroke-width="1"/>
<rect x="0.00" y="95.21" width="472.37" height="105.76" fill="#d62728" fill-opacity="0.18" stroke="#8c1d18" stroke-dasharray="5 3" stroke-width="1"/>
<rect x="89.52" y="1741.22" width="424.60" height="116.93" fill="#d62728" fill-opacity="0.18" stroke="#8c1d18" stroke-dasharray="5 3" stroke-width="1"/>
<rect x="115.14" y="1536.56" width="394.76" height="123.26" fill="#d62728" fill-opacity="0.18" stroke="#8c1d18" stroke-dasharray="5 3" stroke-width="1"/>
<rect x="0.00" y="1163.73" width="509.38" height="79.29" fill="#d62728" fill-opacity="0.18" stroke="#8c1d18" stroke-dasharray="5 3" stroke-width="1"/>
<rect x="0.00" y="11.07" width="510.85" height="59.89" fill="#d62728" fill-opacity="0.18" stroke="#8c1d18" stroke-dasharray="5 3" stroke-width="1"/>
<rect x="255.69" y="2237.10" width="258.43" height="112.61" fill="#d62728" fill-opacity="0.18" stroke="#8c1d18" stroke-dasharray="5 3" stroke-width="1"/>
<rect x="255.69" y="2116.05" width="258.43" height="112.61" fill="#d62728" fill-opacity="0.18" stroke="#8c1d18" stroke-dasharray="5 3" stroke-width="1"/>
<rect x="255.69" y="1995.01" width="258.43" height="112.61" fill="#d62728" fill-opacity="0.18" stroke="#8c1d18" stroke-dasharray="5 3" stroke-width="1"/>
<rect x="255.69" y="1873.97" width="258.43" height="112.61" fill="#d62728" fill-opacity="0.18" stroke="#8c1d18" stroke-dasharray="5 3" stroke-width="1"/>
<rect x="0.00" y="70.96" width="1200.00" height="24.25" fill="#d62728" fill-opacity="0.18" stroke="#8c1d18" stroke-dasharray="5 3" stroke-width="1"/>
</svg>